<svg xmlns="http://www.w3.org/2000/svg" xmlns:xlink="http://www.w3.org/1999/xlink" contentStyleType="text/css" data-diagram-type="ACTIVITY" height="539px" preserveAspectRatio="none" style="width:510px;height:539px;background:#FFFFFF;" version="1.1" viewBox="0 0 510 539" width="510px" zoomAndPan="magnify"><?plantuml 1.2026.3beta4?><defs/><g><g class="title" data-source-line="1"><text fill="#000000" font-family="sans-serif" font-size="14" font-weight="700" lengthAdjust="spacing" textLength="328.3574" x="90.2261" y="32.9951">Datenaufbereitung Pipeline f&#252;r MS-Daten</text></g><ellipse cx="133.5049" cy="62.2969" fill="#222222" rx="10" ry="10" style="stroke:#222222;stroke-width:1;"/><path d="M219.5264,89.1484 L219.5264,105.2813 L199.5264,109.2813 L219.5264,113.2813 L219.5264,129.4141 A0,0 0 0 0 219.5264,129.4141 L392.6479,129.4141 A0,0 0 0 0 392.6479,129.4141 L392.6479,99.1484 L382.6479,89.1484 L219.5264,89.1484 A0,0 0 0 0 219.5264,89.1484" fill="#FEFFDD" style="stroke:#181818;stroke-width:0.5;"/><path d="M382.6479,89.1484 L382.6479,99.1484 L392.6479,99.1484 L382.6479,89.1484" fill="#FEFFDD" style="stroke:#181818;stroke-width:0.5;"/><text fill="#000000" font-family="sans-serif" font-size="13" lengthAdjust="spacing" textLength="147.1069" x="225.5264" y="106.2153">Sheet ausw&#228;hlen nach</text><text fill="#000000" font-family="sans-serif" font-size="13" lengthAdjust="spacing" textLength="152.1216" x="225.5264" y="121.3481">Fragmentationsenergie</text><rect fill="#F1F1F1" height="33.9688" rx="12.5" ry="12.5" style="stroke:#181818;stroke-width:0.5;" width="132.043" x="67.4834" y="92.2969"/><text fill="#000000" font-family="sans-serif" font-size="12" lengthAdjust="spacing" textLength="112.043" x="77.4834" y="113.4355">Rohdaten einlesen</text><path d="M231.2686,146.2656 L231.2686,162.3984 L211.2686,166.3984 L231.2686,170.3984 L231.2686,186.5313 A0,0 0 0 0 231.2686,186.5313 L467.7271,186.5313 A0,0 0 0 0 467.7271,186.5313 L467.7271,156.2656 L457.7271,146.2656 L231.2686,146.2656 A0,0 0 0 0 231.2686,146.2656" fill="#FFA500" style="stroke:#181818;stroke-width:0.5;"/><path d="M457.7271,146.2656 L457.7271,156.2656 L467.7271,156.2656 L457.7271,146.2656" fill="#FFA500" style="stroke:#181818;stroke-width:0.5;"/><text fill="#000000" font-family="sans-serif" font-size="13" lengthAdjust="spacing" textLength="215.4585" x="237.2686" y="163.3325">Hyperparameter 1: Binninggr&#246;&#223;e</text><text fill="#000000" font-family="sans-serif" font-size="13" lengthAdjust="spacing" textLength="58.519" x="237.2686" y="178.4653">z.B. 1 Da</text><rect fill="#F1F1F1" height="33.9688" rx="12.5" ry="12.5" style="stroke:#181818;stroke-width:0.5;" width="155.5273" x="55.7412" y="149.4141"/><text fill="#000000" font-family="sans-serif" font-size="12" lengthAdjust="spacing" textLength="135.5273" x="65.7412" y="170.5527">Binning der m/z-Werte</text><path d="M271.0098,203.3828 L271.0098,219.5156 L251.0098,223.5156 L271.0098,227.5156 L271.0098,243.6484 A0,0 0 0 0 271.0098,243.6484 L489.7329,243.6484 A0,0 0 0 0 489.7329,243.6484 L489.7329,213.3828 L479.7329,203.3828 L271.0098,203.3828 A0,0 0 0 0 271.0098,203.3828" fill="#FEFFDD" style="stroke:#181818;stroke-width:0.5;"/><path d="M479.7329,203.3828 L479.7329,213.3828 L489.7329,213.3828 L479.7329,203.3828" fill="#FEFFDD" style="stroke:#181818;stroke-width:0.5;"/><text fill="#000000" font-family="sans-serif" font-size="13" lengthAdjust="spacing" textLength="193.5908" x="277.0098" y="220.4497">Alle Intensit&#228;ten geteilt durch</text><text fill="#000000" font-family="sans-serif" font-size="13" lengthAdjust="spacing" textLength="157.8662" x="277.0098" y="235.5825">Summe der Intensit&#228;ten</text><rect fill="#F1F1F1" height="33.9688" rx="12.5" ry="12.5" style="stroke:#181818;stroke-width:0.5;" width="235.0098" x="16" y="206.5313"/><text fill="#000000" font-family="sans-serif" font-size="12" lengthAdjust="spacing" textLength="215.0098" x="26" y="227.6699">TIC-Normalisierung der Intensit&#228;ten</text><path d="M228.4619,260.5 L228.4619,276.6328 L208.4619,280.6328 L228.4619,284.6328 L228.4619,300.7656 A0,0 0 0 0 228.4619,300.7656 L489.8096,300.7656 A0,0 0 0 0 489.8096,300.7656 L489.8096,270.5 L479.8096,260.5 L228.4619,260.5 A0,0 0 0 0 228.4619,260.5" fill="#FFA500" style="stroke:#181818;stroke-width:0.5;"/><path d="M479.8096,260.5 L479.8096,270.5 L489.8096,270.5 L479.8096,260.5" fill="#FFA500" style="stroke:#181818;stroke-width:0.5;"/><text fill="#000000" font-family="sans-serif" font-size="13" lengthAdjust="spacing" textLength="240.3477" x="234.4619" y="277.5669">Hyperparameter 2: Anzahl der Peaks</text><text fill="#000000" font-family="sans-serif" font-size="13" lengthAdjust="spacing" textLength="115.1973" x="234.4619" y="292.6997">z.B. Top 10 Peaks</text><rect fill="#F1F1F1" height="33.9688" rx="12.5" ry="12.5" style="stroke:#181818;stroke-width:0.5;" width="149.9141" x="58.5479" y="263.6484"/><text fill="#000000" font-family="sans-serif" font-size="12" lengthAdjust="spacing" textLength="129.9141" x="68.5479" y="284.7871">Top-Peaks ausw&#228;hlen</text><path d="M227.8115,310.7656 L227.8115,334.4648 L207.8115,338.4648 L227.8115,342.4648 L227.8115,366.1641 A0,0 0 0 0 227.8115,366.1641 L433.3696,366.1641 A0,0 0 0 0 433.3696,366.1641 L433.3696,320.7656 L423.3696,310.7656 L227.8115,310.7656 A0,0 0 0 0 227.8115,310.7656" fill="#FFA500" style="stroke:#181818;stroke-width:0.5;"/><path d="M423.3696,310.7656 L423.3696,320.7656 L433.3696,320.7656 L423.3696,310.7656" fill="#FFA500" style="stroke:#181818;stroke-width:0.5;"/><text fill="#000000" font-family="sans-serif" font-size="13" lengthAdjust="spacing" textLength="124.4775" x="233.8115" y="327.8325">Hyperparameter 3:</text><text fill="#000000" font-family="sans-serif" font-size="13" lengthAdjust="spacing" textLength="151.0361" x="233.8115" y="342.9653">- Nach m/z aufsteigend</text><text fill="#000000" font-family="sans-serif" font-size="13" lengthAdjust="spacing" textLength="184.5581" x="233.8115" y="358.0981">- Nach Intensit&#228;t absteigend</text><rect fill="#F1F1F1" height="33.9688" rx="12.5" ry="12.5" style="stroke:#181818;stroke-width:0.5;" width="148.6133" x="59.1982" y="321.4805"/><text fill="#000000" font-family="sans-serif" font-size="12" lengthAdjust="spacing" textLength="128.6133" x="69.1982" y="342.6191">Datenpaare sortieren</text><path d="M241.8477,383.0156 L241.8477,399.1484 L221.8477,403.1484 L241.8477,407.1484 L241.8477,423.2813 A0,0 0 0 0 241.8477,423.2813 L471.603,423.2813 A0,0 0 0 0 471.603,423.2813 L471.603,393.0156 L461.603,383.0156 L241.8477,383.0156 A0,0 0 0 0 241.8477,383.0156" fill="#FEFFDD" style="stroke:#181818;stroke-width:0.5;"/><path d="M461.603,383.0156 L461.603,393.0156 L471.603,393.0156 L461.603,383.0156" fill="#FEFFDD" style="stroke:#181818;stroke-width:0.5;"/><text fill="#000000" font-family="sans-serif" font-size="13" lengthAdjust="spacing" textLength="208.7554" x="247.8477" y="400.0825">Vektorgr&#246;&#223;e = 2 * Anzahl Peaks</text><text fill="#000000" font-family="sans-serif" font-size="13" lengthAdjust="spacing" textLength="104.2285" x="247.8477" y="415.2153">[m/z, Intensit&#228;t]</text><rect fill="#F1F1F1" height="33.9688" rx="12.5" ry="12.5" style="stroke:#181818;stroke-width:0.5;" width="176.6855" x="45.1621" y="386.1641"/><text fill="#000000" font-family="sans-serif" font-size="12" lengthAdjust="spacing" textLength="156.6855" x="55.1621" y="407.3027">Merkmalsvektor erzeugen</text><rect fill="#F1F1F1" height="33.9688" rx="12.5" ry="12.5" style="stroke:#181818;stroke-width:0.5;" width="146.8027" x="60.1035" y="443.2813"/><text fill="#000000" font-family="sans-serif" font-size="12" lengthAdjust="spacing" textLength="126.8027" x="70.1035" y="464.4199">Output als CSV-Datei</text><ellipse cx="133.5049" cy="508.25" fill="none" rx="11" ry="11" style="stroke:#222222;stroke-width:1;"/><ellipse cx="133.5049" cy="508.25" fill="#222222" rx="6" ry="6" style="stroke:#222222;stroke-width:1;"/><line style="stroke:#181818;stroke-width:1;" x1="133.5049" x2="133.5049" y1="72.2969" y2="92.2969"/><polygon fill="#181818" points="129.5049,82.2969,133.5049,92.2969,137.5049,82.2969,133.5049,86.2969" style="stroke:#181818;stroke-width:1;"/><line style="stroke:#181818;stroke-width:1;" x1="133.5049" x2="133.5049" y1="126.2656" y2="149.4141"/><polygon fill="#181818" points="129.5049,139.4141,133.5049,149.4141,137.5049,139.4141,133.5049,143.4141" style="stroke:#181818;stroke-width:1;"/><line style="stroke:#181818;stroke-width:1;" x1="133.5049" x2="133.5049" y1="183.3828" y2="206.5313"/><polygon fill="#181818" points="129.5049,196.5313,133.5049,206.5313,137.5049,196.5313,133.5049,200.5313" style="stroke:#181818;stroke-width:1;"/><line style="stroke:#181818;stroke-width:1;" x1="133.5049" x2="133.5049" y1="240.5" y2="263.6484"/><polygon fill="#181818" points="129.5049,253.6484,133.5049,263.6484,137.5049,253.6484,133.5049,257.6484" style="stroke:#181818;stroke-width:1;"/><line style="stroke:#181818;stroke-width:1;" x1="133.5049" x2="133.5049" y1="297.6172" y2="321.4805"/><polygon fill="#181818" points="129.5049,311.4805,133.5049,321.4805,137.5049,311.4805,133.5049,315.4805" style="stroke:#181818;stroke-width:1;"/><line style="stroke:#181818;stroke-width:1;" x1="133.5049" x2="133.5049" y1="355.4492" y2="386.1641"/><polygon fill="#181818" points="129.5049,376.1641,133.5049,386.1641,137.5049,376.1641,133.5049,380.1641" style="stroke:#181818;stroke-width:1;"/><line style="stroke:#181818;stroke-width:1;" x1="133.5049" x2="133.5049" y1="420.1328" y2="443.2813"/><polygon fill="#181818" points="129.5049,433.2813,133.5049,443.2813,137.5049,433.2813,133.5049,437.2813" style="stroke:#181818;stroke-width:1;"/><line style="stroke:#181818;stroke-width:1;" x1="133.5049" x2="133.5049" y1="477.25" y2="497.25"/><polygon fill="#181818" points="129.5049,487.25,133.5049,497.25,137.5049,487.25,133.5049,491.25" style="stroke:#181818;stroke-width:1;"/><?plantuml-src ZPA_JW914CRxVOf9x8odWjqH2y0OAG0Z1WjZiS2mjs5lxp8xgv6NiV4PhEpknHmEC8SsjFFd-_RtpR9bXt2Z6RsEonaIMexUmBqjqLcFiAo-2OQJf1vHAh0cLkb3aIqs1K3h7GRq7UKBHY1hCWOroH0PT0nlrMVcPCphUQPkIPiSFMksXPST96DHeL_0PbUfj6UzjsA-G8ByOfqy8J4UA9-CINk3wkwzH2erwHnPXbifx7ODLL_L1whrUUySMWBMr7ySz9DHGRbsDbYakBCQU249bgjFFWHHNIVX7BJ1YA5r38j8yqn8OvxZVvK3rw9Cxb6lGYEGOw3QANJzMcUkbgyLjbWY2AtBNQLXL9-er9eGGa4iXCSPNQKgWP5SQ1EwF78P1D68yBxSG0Cz--qsh8T8AuarlEAA2mAaDKRp9ynftTiT2AwX3QTxm2tAizYVDSrUcXRZo6KKVnUWFvdM_z5sDX-oA7y0?></g></svg>