<svg xmlns="http://www.w3.org/2000/svg" xmlns:xlink="http://www.w3.org/1999/xlink" contentStyleType="text/css" data-diagram-type="DESCRIPTION" height="1014px" preserveAspectRatio="none" style="width:581px;height:1014px;background:#FFFFFF;" version="1.1" viewBox="0 0 581 1014" width="581px" zoomAndPan="magnify"><?plantuml 1.2026.3beta4?><defs/><g><!--entity RD--><g class="entity" data-qualified-name="RD" data-source-line="1" id="ent0002"><rect fill="#F1F1F1" height="36.2969" rx="2.5" ry="2.5" style="stroke:#181818;stroke-width:0.5;" width="87.6348" x="343.54" y="7"/><text fill="#000000" font-family="sans-serif" font-size="14" lengthAdjust="spacing" textLength="67.6348" x="353.54" y="29.9951">Raw Data</text></g><!--entity DE--><g class="entity" data-qualified-name="DE" data-source-line="2" id="ent0003"><rect fill="#F1F1F1" height="101.4844" rx="2.5" ry="2.5" style="stroke:#181818;stroke-width:0.5;" width="179.7969" x="297.46" y="104.3"/><text fill="#000000" font-family="sans-serif" font-size="14" lengthAdjust="spacing" textLength="109.3477" x="307.46" y="127.2951">Data Extraction</text><text fill="#000000" font-family="sans-serif" font-size="14" lengthAdjust="spacing" textLength="4.4502" x="307.46" y="143.592">&#160;</text><text fill="#000000" font-family="sans-serif" font-size="14" lengthAdjust="spacing" textLength="159.7969" x="307.46" y="159.8889">uses Hyperparameters</text><text fill="#000000" font-family="sans-serif" font-size="14" lengthAdjust="spacing" textLength="123.0127" x="307.46" y="176.1857">- extract_main.py</text><text fill="#000000" font-family="sans-serif" font-size="14" lengthAdjust="spacing" textLength="126.2598" x="307.46" y="192.4826">- extract_novel.py</text></g><!--entity HO--><g class="entity" data-qualified-name="HO" data-source-line="3" id="ent0004"><rect fill="#F1F1F1" height="68.8906" rx="2.5" ry="2.5" style="stroke:#181818;stroke-width:0.5;" width="221.373" x="40.67" y="120.59"/><text fill="#000000" font-family="sans-serif" font-size="14" lengthAdjust="spacing" textLength="201.373" x="50.67" y="143.5851">Hyperparamter Optimization</text><text fill="#000000" font-family="sans-serif" font-size="14" lengthAdjust="spacing" textLength="4.4502" x="50.67" y="159.882">&#160;</text><text fill="#000000" font-family="sans-serif" font-size="14" lengthAdjust="spacing" textLength="75.4004" x="50.67" y="176.1789">- looper.py</text></g><!--entity ERF--><g class="entity" data-qualified-name="ERF" data-source-line="4" id="ent0005"><rect fill="#F1F1F1" height="68.8906" rx="2.5" ry="2.5" style="stroke:#181818;stroke-width:0.5;" width="102.7217" x="7" y="290.93"/><text fill="#000000" font-family="sans-serif" font-size="14" lengthAdjust="spacing" textLength="73.8691" x="17" y="313.9251">Evaluation</text><text fill="#000000" font-family="sans-serif" font-size="14" lengthAdjust="spacing" textLength="4.4502" x="17" y="330.222">&#160;</text><text fill="#000000" font-family="sans-serif" font-size="14" lengthAdjust="spacing" textLength="82.7217" x="17" y="346.5189">- rfLoocv.py</text></g><!--entity RF--><g class="entity" data-qualified-name="RF" data-source-line="5" id="ent0006"><rect fill="#F1F1F1" height="85.1875" rx="2.5" ry="2.5" style="stroke:#181818;stroke-width:0.5;" width="172.5029" x="145.11" y="282.78"/><text fill="#000000" font-family="sans-serif" font-size="14" lengthAdjust="spacing" textLength="106.4902" x="155.11" y="305.7751">Random Forest</text><text fill="#000000" font-family="sans-serif" font-size="14" lengthAdjust="spacing" textLength="4.4502" x="155.11" y="322.072">&#160;</text><text fill="#000000" font-family="sans-serif" font-size="14" lengthAdjust="spacing" textLength="152.5029" x="155.11" y="338.3689">usese Hyperparamter</text><text fill="#000000" font-family="sans-serif" font-size="14" lengthAdjust="spacing" textLength="83.2344" x="155.11" y="354.6657">- build_rf.py</text></g><!--entity V--><g class="entity" data-qualified-name="V" data-source-line="6" id="ent0007"><rect fill="#F1F1F1" height="68.8906" rx="2.5" ry="2.5" style="stroke:#181818;stroke-width:0.5;" width="115.3818" x="307.67" y="444.97"/><text fill="#000000" font-family="sans-serif" font-size="14" lengthAdjust="spacing" textLength="65.5498" x="317.67" y="467.9651">Vectorize</text><text fill="#000000" font-family="sans-serif" font-size="14" lengthAdjust="spacing" textLength="4.4502" x="317.67" y="484.262">&#160;</text><text fill="#000000" font-family="sans-serif" font-size="14" lengthAdjust="spacing" textLength="95.3818" x="317.67" y="500.5589">- vectorize.py</text></g><!--entity DB--><g class="entity" data-qualified-name="DB" data-source-line="7" id="ent0008"><rect fill="#F1F1F1" height="101.4844" rx="2.5" ry="2.5" style="stroke:#181818;stroke-width:0.5;" width="169.7617" x="280.48" y="590.86"/><text fill="#000000" font-family="sans-serif" font-size="14" lengthAdjust="spacing" textLength="80.9785" x="290.48" y="613.8551">DBSCAN Fit</text><text fill="#000000" font-family="sans-serif" font-size="14" lengthAdjust="spacing" textLength="4.4502" x="290.48" y="630.152">&#160;</text><text fill="#000000" font-family="sans-serif" font-size="14" lengthAdjust="spacing" textLength="149.7617" x="290.48" y="646.4489">for Novelty Detection</text><text fill="#000000" font-family="sans-serif" font-size="14" lengthAdjust="spacing" textLength="70.2051" x="290.48" y="662.7457">- fit_db.py</text><text fill="#000000" font-family="sans-serif" font-size="14" lengthAdjust="spacing" textLength="116.8193" x="290.48" y="679.0426">- evaluate_db.py</text></g><!--entity CC--><g class="entity" data-qualified-name="CC" data-source-line="8" id="ent0009"><rect fill="#F1F1F1" height="68.8906" rx="2.5" ry="2.5" style="stroke:#181818;stroke-width:0.5;" width="164.4229" x="264.15" y="769.34"/><text fill="#000000" font-family="sans-serif" font-size="14" lengthAdjust="spacing" textLength="144.4229" x="274.15" y="792.3351">Compound Classifier</text><text fill="#000000" font-family="sans-serif" font-size="14" lengthAdjust="spacing" textLength="4.4502" x="274.15" y="808.632">&#160;</text><text fill="#000000" font-family="sans-serif" font-size="14" lengthAdjust="spacing" textLength="87.9443" x="274.15" y="824.9289">- build_cc.py</text></g><!--entity ECC--><g class="entity" data-qualified-name="ECC" data-source-line="9" id="ent0010"><rect fill="#F1F1F1" height="85.1875" rx="2.5" ry="2.5" style="stroke:#181818;stroke-width:0.5;" width="220.1084" x="314.31" y="915.23"/><text fill="#000000" font-family="sans-serif" font-size="14" lengthAdjust="spacing" textLength="73.8691" x="324.31" y="938.2251">Evaluation</text><text fill="#000000" font-family="sans-serif" font-size="14" lengthAdjust="spacing" textLength="4.4502" x="324.31" y="954.522">&#160;</text><text fill="#000000" font-family="sans-serif" font-size="14" lengthAdjust="spacing" textLength="200.1084" x="324.31" y="970.8189">- evaluate_all + evaluate_db</text><text fill="#000000" font-family="sans-serif" font-size="14" lengthAdjust="spacing" textLength="177.4678" x="324.31" y="987.1157">- Outputs: Accuracy, SEM</text></g><!--link RD to DE--><g class="link" data-entity-1="ent0002" data-entity-2="ent0003" data-link-type="dependency" data-source-line="11" id="lnk11"><path d="M387.36,43.66 C387.36,59.19 387.36,76.65 387.36,97.95" fill="none" id="RD-to-DE" style="stroke:#181818;stroke-width:1;"/><polygon fill="#181818" points="387.36,103.95,391.36,94.95,387.36,98.95,383.36,94.95,387.36,103.95" style="stroke:#181818;stroke-width:1;"/></g><!--link DE to RF--><g class="link" data-entity-1="ent0003" data-entity-2="ent0006" data-link-type="dependency" data-source-line="12" id="lnk12"><path d="M331.09,205.87 C320.92,215.52 310.62,225.76 301.36,235.78 C287.79,250.46 277.5935,262.766 265.8235,277.966" fill="none" id="DE-to-RF" style="stroke:#181818;stroke-width:1;"/><polygon fill="#181818" points="262.15,282.71,270.8229,278.043,265.2112,278.7567,264.4976,273.145,262.15,282.71" style="stroke:#181818;stroke-width:1;"/><text fill="#000000" font-family="sans-serif" font-size="13" lengthAdjust="spacing" textLength="58.2271" x="302.36" y="248.8469">main.csv</text></g><!--link HO to DE--><g class="link" data-entity-1="ent0004" data-entity-2="ent0003" data-link-type="dependency" data-source-line="13" id="lnk13"><path d="M262.45,155.04 C273.99,155.04 279.54,155.04 291.09,155.04" fill="none" id="HO-to-DE" style="stroke:#181818;stroke-width:1;"/><polygon fill="#181818" points="297.09,155.04,288.09,151.04,292.09,155.04,288.09,159.04,297.09,155.04" style="stroke:#181818;stroke-width:1;"/></g><!--reverse link HO to ERF--><g class="link" data-entity-1="ent0004" data-entity-2="ent0005" data-link-type="dependency" data-source-line="14" id="lnk15"><path d="M129.8593,194.9522 C113.6993,224.2122 93.29,261.15 77.08,290.48" fill="none" id="HO-backto-ERF" style="stroke:#181818;stroke-width:1;"/><polygon fill="#181818" points="132.76,189.7,124.9074,195.6445,130.3427,194.0768,131.9104,199.5121,132.76,189.7" style="stroke:#181818;stroke-width:1;"/></g><!--reverse link ERF to RF--><g class="link" data-entity-1="ent0005" data-entity-2="ent0006" data-link-type="dependency" data-source-line="15" id="lnk17"><path d="M116.06,325.37 C127.59,325.37 133.12,325.37 144.65,325.37" fill="none" id="ERF-backto-RF" style="stroke:#181818;stroke-width:1;"/><polygon fill="#181818" points="110.06,325.37,119.06,329.37,115.06,325.37,119.06,321.37,110.06,325.37" style="stroke:#181818;stroke-width:1;"/></g><!--link HO to RF--><g class="link" data-entity-1="ent0004" data-entity-2="ent0006" data-link-type="dependency" data-source-line="16" id="lnk18"><path d="M167.36,189.7 C180.03,216.37 195.234,248.3611 208.844,276.9911" fill="none" id="HO-to-RF" style="stroke:#181818;stroke-width:1;"/><polygon fill="#181818" points="211.42,282.41,211.1686,272.5644,209.2733,277.8943,203.9434,275.999,211.42,282.41" style="stroke:#181818;stroke-width:1;"/></g><!--link V to DB--><g class="link" data-entity-1="ent0007" data-entity-2="ent0008" data-link-type="dependency" data-source-line="17" id="lnk19"><path d="M365.36,513.99 C365.36,536.19 365.36,559.69 365.36,584.63" fill="none" id="V-to-DB" style="stroke:#181818;stroke-width:1;"/><polygon fill="#181818" points="365.36,590.63,369.36,581.63,365.36,585.63,361.36,581.63,365.36,590.63" style="stroke:#181818;stroke-width:1;"/><text fill="#000000" font-family="sans-serif" font-size="13" lengthAdjust="spacing" textLength="73.7534" x="366.36" y="556.9269">vectors.csv</text></g><!--link RF to CC--><g class="link" data-entity-1="ent0006" data-entity-2="ent0009" data-link-type="dependency" data-source-line="18" id="lnk20"><path d="M227.73,368.37 C223.27,438.18 220.87,581.42 263.36,692.34 C274.34,721.01 291.1245,744.1172 309.1345,764.5672" fill="none" id="RF-to-CC" style="stroke:#181818;stroke-width:1;"/><polygon fill="#181818" points="313.1,769.07,310.1536,759.6722,309.7954,765.3177,304.1499,764.9595,313.1,769.07" style="stroke:#181818;stroke-width:1;"/><text fill="#000000" font-family="sans-serif" font-size="13" lengthAdjust="spacing" textLength="56.9004" x="233.36" y="556.9269">rf_model</text></g><!--link DE to V--><g class="link" data-entity-1="ent0003" data-entity-2="ent0007" data-link-type="dependency" data-source-line="19" id="lnk21"><path d="M383.95,206.05 C379.42,272.37 371.9579,381.6639 368.0779,438.6039" fill="none" id="DE-to-V" style="stroke:#181818;stroke-width:1;"/><polygon fill="#181818" points="367.67,444.59,372.2726,435.8828,368.0099,439.6016,364.2911,435.3389,367.67,444.59" style="stroke:#181818;stroke-width:1;"/><text fill="#000000" font-family="sans-serif" font-size="13" lengthAdjust="spacing" textLength="58.2271" x="379.36" y="329.9369">main.csv</text></g><!--link RF to V--><g class="link" data-entity-1="ent0006" data-entity-2="ent0007" data-link-type="dependency" data-source-line="20" id="lnk22"><path d="M263.93,368.05 C276.02,383.08 290.04,400.03 303.36,414.97 C312.18,424.85 317.863,430.9722 327.113,440.4222" fill="none" id="RF-to-V" style="stroke:#181818;stroke-width:1;"/><polygon fill="#181818" points="331.31,444.71,327.873,435.4803,327.8125,441.1369,322.1559,441.0764,331.31,444.71" style="stroke:#181818;stroke-width:1;"/><text fill="#000000" font-family="sans-serif" font-size="13" lengthAdjust="spacing" textLength="56.9004" x="304.36" y="411.0369">rf_model</text></g><!--link DB to CC--><g class="link" data-entity-1="ent0008" data-entity-2="ent0009" data-link-type="dependency" data-source-line="21" id="lnk23"><path d="M359.45,692.41 C356.49,717.39 353.687,741.0218 351.047,763.2718" fill="none" id="DB-to-CC" style="stroke:#181818;stroke-width:1;"/><polygon fill="#181818" points="350.34,769.23,355.3726,760.764,350.9291,764.2648,347.4283,759.8214,350.34,769.23" style="stroke:#181818;stroke-width:1;"/><text fill="#000000" font-family="sans-serif" font-size="13" lengthAdjust="spacing" textLength="110.5444" x="356.36" y="735.4069">dbscan_classifier</text></g><!--link CC to ECC--><g class="link" data-entity-1="ent0009" data-entity-2="ent0010" data-link-type="dependency" data-source-line="22" id="lnk24"><path d="M338.52,838.57 C336.7,853.47 336.87,870.83 343.36,885.23 C348.3,896.18 351.6491,901.8265 360.1691,910.5965" fill="none" id="CC-to-ECC" style="stroke:#181818;stroke-width:1;"/><polygon fill="#181818" points="364.35,914.9,360.9477,905.6575,360.866,911.3137,355.2097,911.2319,364.35,914.9" style="stroke:#181818;stroke-width:1;"/><text fill="#000000" font-family="sans-serif" font-size="13" lengthAdjust="spacing" textLength="132.6152" x="344.36" y="881.2969">compound_classifier</text></g><!--link DE to ECC--><g class="link" data-entity-1="ent0003" data-entity-2="ent0010" data-link-type="dependency" data-source-line="23" id="lnk25"><path d="M445.36,206.13 C474.36,236.86 503.36,278.94 503.36,324.37 C503.36,324.37 503.36,324.37 503.36,804.79 C503.36,841.85 498.14,852.18 481.36,885.23 C476.18,895.43 473.0404,900.7829 465.9804,910.0729" fill="none" id="DE-to-ECC" style="stroke:#FF0000;stroke-width:1;"/><polygon fill="#FF0000" points="462.35,914.85,470.9803,910.1046,465.3753,910.8691,464.6108,905.2641,462.35,914.85" style="stroke:#FF0000;stroke-width:1;"/><text fill="#000000" font-family="sans-serif" font-size="13" lengthAdjust="spacing" textLength="61.2422" x="504.36" y="556.9269">novel.csv</text></g><?plantuml-src VLBBReCm4Bpp5QlqsD8FoA5IU2c7DaX4uj9Ko36cicGmiWqj-VgkSGZcKd5WcPsTiMTHZ1hIVGi6kuByG48CsG7HK2I1MbiMXlJNA48Dbzq5dq4p3SUfPwedYhJCCAKlNGZCiQgMyEwrdy37EZaoWU3iaAI-mwg4Gf3tXhVyHXQp48IKI5XcZxa_cuv431vNDUzIqd4XfqNcimlIrRA5J2gcpN8J1fi3M9Nhm4LTgMQHsQgKM4h5RynPZildmYutyKNd-722ZCz-ZLHmiacO2HBCxHvf20qtLNr5XJapTodc49TOv8l6iktbqDKG2w8rRxWzzdfmIfUnEFulh8SF4GAUVLlRpGVJ3qRluK3fW3kSNk2SVhXOKJSe4WZhyCqkCqbTMMImXtdxL8_1COTGEGBk0S81QzoUBGMMTZUMCiy5fNqd4SwxFFKiORc8np7YggbQMJCnko5O-bvtOhdXHUjmVTMKT1Lzv1KWRBlftARtG7s2jVbyKgp-Uj3SJun-Vm00?></g></svg>